<svg xmlns="http://www.w3.org/2000/svg" width="96" height="96" viewBox="0 0 96 96" role="img" aria-label="HikaShop">
  <circle cx="48" cy="48" r="46" fill="#297EBA"/>
  <g fill="#FBE8D4">
    <rect x="46" y="14" width="4" height="14" rx="2" opacity="1"   transform="rotate(0 48 48)"/>
    <rect x="46" y="14" width="4" height="14" rx="2" opacity="0.5" transform="rotate(45 48 48)"/>
    <rect x="46" y="14" width="4" height="14" rx="2" opacity="1"   transform="rotate(90 48 48)"/>
    <rect x="46" y="14" width="4" height="14" rx="2" opacity="0.5" transform="rotate(135 48 48)"/>
    <rect x="46" y="14" width="4" height="14" rx="2" opacity="1"   transform="rotate(180 48 48)"/>
    <rect x="46" y="14" width="4" height="14" rx="2" opacity="0.5" transform="rotate(225 48 48)"/>
    <rect x="46" y="14" width="4" height="14" rx="2" opacity="1"   transform="rotate(270 48 48)"/>
    <rect x="46" y="14" width="4" height="14" rx="2" opacity="0.5" transform="rotate(315 48 48)"/>
  </g>
  <circle cx="48" cy="48" r="14" fill="#FBE8D4"/>
</svg>
